<svg width="512" height="512" viewBox="0 0 512 512" xmlns="http://www.w3.org/2000/svg" xmlns:xlink="http://www.w3.org/1999/xlink">
    <path id="Ellipse" fill="#ffffff" stroke="none" d="M 218.770996 466.518005 C 100.764999 466.518005 5.103 372.503998 5.103 256.53299 C 5.103 140.562988 100.764999 46.550995 218.770996 46.550995 C 224.276993 46.550995 229.735992 46.753998 235.138 47.156006 C 129.246002 57.980011 46.632 147.434998 46.632 256.18399 C 46.632 366.291992 131.324997 456.618988 239.119995 465.578003 C 232.423004 466.200012 225.634003 466.518005 218.770996 466.518005 Z"/>
    <path id="Ellipse-copy" fill="#ff3464" stroke="none" d="M 292.332001 466.518005 C 285.860992 466.518005 279.455994 466.234985 273.131012 465.682007 C 381.528015 457.328003 466.882996 366.722992 466.882996 256.18399 C 466.882996 147.087006 383.740997 57.411011 277.363007 47.057007 C 282.308014 46.720001 287.299988 46.550995 292.332001 46.550995 C 410.338013 46.550995 506 140.562988 506 256.53299 C 506 372.503998 410.338013 466.518005 292.332001 466.518005 Z"/>
    <path id="path1" fill="#ff3464" fill-rule="evenodd" stroke="none" d="M 433 256 C 433 158.245605 353.754395 79 256 79 C 158.245605 79 79 158.245605 79 256 C 79 353.754395 158.245605 433 256 433 C 353.754395 433 433 353.754395 433 256 Z"/>
    <path id="Shape" fill="#ffffff" stroke="none" d="M 216.396149 98.867859 C 216.396149 98.867859 216.354553 79 236.109009 79 C 255.862473 79 275.487183 79 275.487183 79 C 275.487183 79 295.1763 79.207611 295.1763 98.734406 C 295.1763 118.263153 295.1763 216.68396 295.1763 216.68396 L 413.309875 216.68396 C 413.309875 216.68396 432.999969 216.673096 432.999969 236.366943 C 432.999969 256.059814 432.999969 275.734863 432.999969 275.734863 C 432.999969 275.734863 433.145538 295.393127 413.310852 295.393127 C 407.874969 295.393127 295.09906 295.393127 295.09906 295.393127 L 295.09906 413.342712 C 295.09906 413.342712 295.216888 433 275.409943 433 C 255.603027 433 236.109009 433 236.109009 433 C 236.109009 433 216.419922 433.029663 216.419922 413.342712 C 216.419922 393.655792 216.419922 295.393127 216.419922 295.393127 L 98.285339 295.393127 C 98.285339 295.393127 78.519997 295.406982 78.519997 275.581635 C 78.519997 255.756317 78.519997 236.265137 78.519997 236.265137 C 78.519997 236.265137 78.702187 216.750214 98.304146 216.750214 C 117.906105 216.750214 216.342682 216.750214 216.342682 216.750214 L 216.396149 98.867859 Z"/>
</svg>
