<?xml version="1.0" encoding="UTF-8"?>
<svg width="512px" height="512px" viewBox="0 0 512 512" xmlns="http://www.w3.org/2000/svg" xmlns:xlink="http://www.w3.org/1999/xlink" version="1.1">
 <!-- Generated by Pixelmator Pro 2.2 -->
 <path id="Ellipse" d="M218.771 466.518 C100.765 466.518 5.103 372.504 5.103 256.533 5.103 140.563 100.765 46.551 218.771 46.551 224.277 46.551 229.736 46.754 235.138 47.156 129.246 57.98 46.632 147.435 46.632 256.184 46.632 366.292 131.325 456.619 239.12 465.578 232.423 466.2 225.634 466.518 218.771 466.518 Z" fill="#ff3464" fill-opacity="1" stroke="none"/>
 <path id="Ellipse-copy" d="M292.332 466.518 C285.861 466.518 279.456 466.235 273.131 465.682 381.528 457.328 466.883 366.723 466.883 256.184 466.883 147.087 383.741 57.411 277.363 47.057 282.308 46.72 287.3 46.551 292.332 46.551 410.338 46.551 506 140.563 506 256.533 506 372.504 410.338 466.518 292.332 466.518 Z" fill="#ffffff" fill-opacity="1" stroke="none"/>
 <path id="Shape" d="M217.768 96.609 C217.768 96.609 217.726 76.512 237.677 76.512 257.627 76.512 277.447 76.512 277.447 76.512 277.447 76.512 297.332 76.722 297.332 96.474 297.332 116.228 297.332 215.784 297.332 215.784 L416.641 215.784 C416.641 215.784 436.527 215.773 436.527 235.694 436.527 255.614 436.527 275.516 436.527 275.516 436.527 275.516 436.674 295.401 416.642 295.401 411.152 295.401 297.254 295.401 297.254 295.401 L297.254 414.711 C297.254 414.711 297.373 434.595 277.369 434.595 257.365 434.595 237.677 434.595 237.677 434.595 237.677 434.595 217.792 434.625 217.792 414.711 217.792 394.797 217.792 295.401 217.792 295.401 L98.482 295.401 C98.482 295.401 78.52 295.415 78.52 275.361 78.52 255.307 78.52 235.591 78.52 235.591 78.52 235.591 78.704 215.851 98.501 215.851 118.298 215.851 217.714 215.851 217.714 215.851 L217.768 96.609 Z" fill="#ff3464" fill-opacity="1" stroke="none"/>
</svg>
