<?xml version="1.0" encoding="UTF-8"?>
<svg width="1024px" height="1024px" viewBox="0 0 1024 1024" xmlns="http://www.w3.org/2000/svg" xmlns:xlink="http://www.w3.org/1999/xlink" version="1.1">
 <!-- Generated by Pixelmator Pro 2.3 -->
 <defs>
  <linearGradient id="linear-gradient" gradientUnits="userSpaceOnUse" x1="515.137" y1="981.614" x2="515.137" y2="42.48">
   <stop offset="0" stop-color="#ff3464" stop-opacity="1"/>
   <stop offset="1" stop-color="#ff34c3" stop-opacity="1"/>
  </linearGradient>
 </defs>
 <path id="Path" d="M268.345 921.535 C268.345 921.535 226.893 939.552 210.693 942.125 205.423 942.963 198.348 952.447 202.456 955.852 213.501 965.007 236.818 961.341 253.245 966.834 259.459 968.911 264.669 973.771 271.09 975.07 284.552 977.792 312.27 973.697 312.27 973.697 L313.643 946.243 316.388 917.417 331.488 876.237 346.587 840.548 C346.587 840.548 351.067 833.532 352.078 829.566 355.246 817.144 353.451 791.131 353.451 791.131 L398.749 759.56 428.948 745.833 439.929 734.852 442.674 733.479 460.519 718.38 C460.519 718.38 470.253 714.708 476.991 715.634 479.136 715.929 492.503 712.521 500.327 712.889 506.871 713.197 514.157 713.279 519.544 717.007 525.807 721.34 531.898 736.224 531.898 736.224 L537.389 748.578 557.979 763.678 582.687 797.995 596.414 813.094 607.395 836.43 C607.395 836.43 611.205 849.569 614.259 855.647 620.183 867.441 636.221 888.591 636.221 888.591 L655.439 924.281 663.675 938.007 C663.675 938.007 662.09 947.846 662.302 950.361 662.571 953.547 679.593 979.032 684.265 981.933 685.544 982.727 699.575 976.225 707.601 975.07 711.224 974.548 715.001 975.829 718.582 975.07 722.99 974.134 729.608 971.756 730.936 969.579 733.081 966.063 732.293 961.113 730.936 957.225 729.608 953.42 722.179 946.796 718.582 944.871 715.211 943.067 703.482 938.007 703.482 938.007 L697.992 932.517 689.756 922.908 673.284 874.864 667.793 855.647 C667.793 855.647 660.566 835.931 655.439 826.821 651.578 819.96 646.801 813.61 641.712 807.603 638.366 803.653 630.731 796.622 630.731 796.622 L629.358 789.759 C629.358 789.759 628.747 782.387 627.985 778.777 626.013 769.429 619.749 751.324 619.749 751.324 L614.259 733.479 601.905 704.653 603.277 700.535 593.669 681.317 593.669 671.709 588.178 664.845 588.178 656.609 592.296 653.864 592.296 638.764 593.669 630.528 636.221 546.795 C636.221 546.795 651.265 532.632 655.439 523.46 656.592 520.927 656.812 515.224 656.812 515.224 656.812 515.224 661.435 513.861 662.302 512.478 663.959 509.839 663.675 502.87 663.675 502.87 L680.147 476.789 C680.147 476.789 690.537 473.848 695.246 471.298 697.258 470.209 700.737 467.18 700.737 467.18 L696.619 439.727 C696.619 439.727 705.902 413.233 710.346 399.919 712.777 392.635 724.073 380.702 724.073 380.702 L773.489 331.285 778.98 325.795 780.352 320.304 C780.352 320.304 783.687 319.736 784.47 318.931 785.155 318.228 787.216 312.068 787.216 312.068 L796.824 301.087 796.824 298.341 802.315 290.105 818.787 275.006 822.905 265.397 818.787 261.279 813.296 255.788 810.551 244.807 795.452 243.434 794.079 246.18 798.197 250.298 794.079 251.67 789.961 250.298 784.47 261.279 783.098 284.615 780.352 284.615 C780.352 284.615 769.856 295.072 769.371 295.596 768.908 296.096 766.715 294.863 766.625 295.596 766.453 297.008 765.253 299.714 765.253 299.714 L757.017 307.95 755.644 310.695 755.644 313.441 708.973 353.248 677.402 388.938 669.166 401.292 C669.166 401.292 656.035 425.629 655.439 426 654.842 426.371 643.085 432.863 643.085 432.863 L648.576 415.019 652.694 387.565 C652.694 387.565 651.99 378.034 649.948 373.838 648.102 370.045 641.712 364.23 641.712 364.23 641.712 364.23 634.151 355.838 633.476 354.621 632.801 353.404 630.158 351.085 625.24 349.13 623.529 348.45 608.768 346.385 608.768 346.385 608.768 346.385 595.975 344.242 589.551 345.012 585.636 345.481 579.2 347.835 576.782 348.758 576.177 348.989 576.051 348.874 575.824 349.13 573.711 351.518 570.333 355.994 570.333 355.994 570.333 355.994 567.547 359.134 567.588 360.112 567.628 361.089 562.825 366.104 562.097 369.72 561.711 371.64 564.842 388.938 564.842 388.938 564.842 388.938 563.335 396.233 563.47 399.919 563.555 402.251 564.987 404.454 564.842 406.783 564.753 408.227 563.583 409.458 563.47 410.901 563.252 413.675 564.842 419.137 564.842 419.137 L567.588 428.745 568.96 432.863 570.333 435.609 559.352 447.963 C559.352 447.963 548.938 445.034 546.998 445.217 545.355 445.373 544.252 449.335 544.252 449.335 L494.836 408.155 486.6 401.292 472.873 382.074 C472.873 382.074 466.448 371.576 460.519 366.975 457.766 364.839 449.538 360.112 449.538 360.112 L442.674 349.13 433.066 335.404 394.631 302.459 394.631 301.087 367.177 270.888 364.432 270.888 365.805 265.397 374.041 257.161 375.413 250.298 374.041 237.944 371.295 231.08 378.159 218.726 378.159 211.863 379.531 206.372 C379.531 206.372 386.272 197.535 390.513 194.018 398.728 187.206 408.31 182.09 417.966 177.546 425.43 174.034 430.205 173.708 437.184 169.31 445.395 164.135 451.146 159.626 456.401 151.465 460.634 144.891 464.954 135.877 466.01 128.13 467.842 114.693 469.197 107.126 467.383 91.068 466.998 87.664 466.533 84.869 465.643 82.031 464.19 77.402 461.608 72.661 456.401 64.987 447.878 52.423 438.073 47.613 433.066 45.769 427.842 43.846 422.155 43.261 416.594 43.024 403.658 42.472 393.62 51.601 389.14 55.378 378.106 64.682 371.299 81.584 369.923 96.558 368.667 110.22 370.672 129.06 371.295 134.993 372.019 141.879 372.209 145.929 372.668 152.838 372.941 156.947 372.884 159.707 372.668 163.819 372.393 169.057 372.842 171.535 372.668 177.546 372.552 181.553 372.036 191.973 371.295 195.391 370.683 198.219 368.55 202.254 368.55 202.254 L365.805 207.745 361.687 211.863 354.823 228.335 C354.823 228.335 346.647 228.495 345.215 229.708 343.434 231.215 343.842 236.571 343.842 236.571 343.842 236.571 339.885 237.962 338.351 239.316 337.114 240.408 335.606 243.434 335.606 243.434 335.606 243.434 333.339 245.973 332.861 247.552 332.198 249.742 332.861 254.416 332.861 254.416 332.861 254.416 332.211 264.884 334.233 269.515 336.697 275.156 346.587 283.242 346.587 283.242 L347.96 287.36 374.041 323.049 375.413 323.049 402.867 350.503 417.966 364.23 423.457 375.211 430.32 383.447 435.811 395.801 453.656 421.882 467.383 447.963 C467.383 447.963 463.931 456.666 463.265 458.944 462.697 460.884 462.961 467.031 463.265 468.553 463.554 470.005 471.501 475.416 471.501 475.416 471.501 475.416 467.681 508.227 468.755 512.478 469.221 514.322 481.109 520.714 481.109 520.714 L456.401 593.466 456.401 604.448 448.165 607.193 441.302 609.938 C441.302 609.938 436.43 614.251 434.438 616.802 432.796 618.905 430.725 622.333 430.32 623.665 429.97 624.818 435.811 630.528 435.811 630.528 L431.693 636.019 420.712 640.137 416.594 644.255 C416.594 644.255 411.97 648.53 406.985 652.491 402 656.453 393.029 665.066 386.395 671.709 373.583 684.536 360.575 697.293 349.333 711.516 345.241 716.693 338.351 727.988 338.351 727.988 L331.488 736.224 319.134 745.833 315.016 747.206 309.525 758.187 C309.525 758.187 310.187 774.915 308.152 782.895 306.736 788.451 301.289 797.995 301.289 797.995 L295.798 818.585 294.426 858.392 293.053 874.864 288.935 883.1 290.308 888.591 283.444 898.2 282.072 905.063 279.326 911.927 268.345 921.535 Z" fill-opacity="1" fill="url(#linear-gradient)" stroke="none"/>
</svg>
