<svg width="32" height="32" viewBox="0 0 32 32" fill="none" xmlns="http://www.w3.org/2000/svg">
<path d="M16 0C9.4 0 4 5.35048 4 11.9357C4 14.5423 4.86667 17.0118 6.4 19.0697L16 32L25.6 19.0697C27.1333 17.0118 28 14.5423 28 11.9357C28 5.35048 22.6 0 16 0ZM16.8667 16.6002C16.2667 16.7374 15.6667 16.7374 15.0667 16.6002C12.5333 16.0514 10.8667 13.582 11.4 10.9753C11.9333 8.3687 14.3333 6.65381 16.8667 7.20257C18.7333 7.61415 20.2 9.05466 20.5333 10.9753C21 13.582 19.3333 16.12 16.8667 16.6002Z" fill="#242424"/>
</svg>
