<svg width="32" height="32" viewBox="0 0 1024 1024" xmlns="http://www.w3.org/2000/svg" xmlns:xlink="http://www.w3.org/1999/xlink">
    <g id="Layer"/>
    <path id="Path-copy" fill="#000000" stroke="none" d="M 9.626 771.609009 C 9.626 771.609009 220.684998 771.609009 220.684998 771.609009 L 233.824997 670.541016 C 233.824997 670.541016 406.221985 848.755005 420.384003 862.900024 C 439.527008 882.020996 463.140991 889.499023 470.583008 871.758972 C 472.266998 867.742981 453.455994 981.859985 453.455994 981.859985 L 921.392029 982 C 921.392029 982 971.591003 777.265991 971.591003 777.265991 C 971.591003 777.265991 708.528992 775.283997 708.528992 775.283997 C 708.528992 775.283997 784.288025 420.129028 784.288025 420.129028 C 784.288025 420.129028 946.632019 421.969971 946.632019 421.969971 C 946.632019 421.969971 997 210 997 210 C 997 210 350.546997 205.542969 350.546997 205.542969 L 337.381989 205.502014 L 328.924988 283.815002 C 328.924988 283.815002 106.966003 61.827026 105 60 C 102.010002 57.223022 91.156998 55.917969 90 65 C 76.692001 169.44397 9.626 771.609009 9.626 771.609009 Z"/>
    <linearGradient id="linearGradient1" x1="549.906" y1="550.442" x2="549.906" y2="248.063" gradientUnits="userSpaceOnUse">
        <stop offset="1e-05" stop-color="#2cafde" stop-opacity="1"/>
        <stop offset="1" stop-color="#247591" stop-opacity="1"/>
    </linearGradient>
    <path id="Path-copy-1" fill="url(#linearGradient1)" stroke="none" d="M 470.444 531.098022 C 470.444 531.098022 457.097992 536.898987 451.881989 537.728027 C 450.184998 537.997009 447.907013 541.051025 449.230011 542.146973 C 452.786011 545.094971 460.294006 543.914978 465.583008 545.682983 C 467.583008 546.35199 469.260986 547.916992 471.328003 548.335022 C 475.662994 549.211975 484.587006 547.893005 484.587006 547.893005 L 485.028992 539.054016 L 485.912994 529.771973 L 490.774994 516.513 L 495.636993 505.021973 C 495.636993 505.021973 497.07901 502.763 497.404999 501.485962 C 498.424011 497.487 497.846985 489.110962 497.846985 489.110962 L 512.432007 478.946045 L 522.155029 474.526001 L 525.690979 470.98999 L 526.575012 470.547974 L 532.320007 465.687012 C 532.320007 465.687012 535.453979 464.505005 537.624023 464.802979 C 538.314026 464.89801 542.617981 463.799988 545.137024 463.919006 C 547.244019 464.018005 549.590027 464.045044 551.325012 465.244995 C 553.341003 466.640015 555.302002 471.432007 555.302002 471.432007 L 557.070007 475.410034 L 563.700012 480.271973 L 571.655029 491.321045 L 576.075012 496.182983 L 579.611023 503.696045 C 579.611023 503.696045 580.838013 507.927002 581.820984 509.884033 C 583.728027 513.68103 588.892029 520.491028 588.892029 520.491028 L 595.080017 531.981995 L 597.731995 536.401978 C 597.731995 536.401978 597.221008 539.570007 597.289978 540.380005 C 597.375977 541.405029 602.856995 549.611023 604.361023 550.544983 C 604.77301 550.801025 609.291016 548.70697 611.875 548.335022 C 613.041016 548.166992 614.257019 548.580017 615.409973 548.335022 C 616.830017 548.033997 618.960022 547.268005 619.388 546.567017 C 620.078979 545.434998 619.825012 543.841003 619.388 542.588989 C 618.960999 541.36499 616.56897 539.231995 615.409973 538.612 C 614.325012 538.031006 610.549011 536.401978 610.549011 536.401978 L 608.781006 534.633972 L 606.129028 531.539978 L 600.825012 516.070984 L 599.057007 509.884033 C 599.057007 509.884033 596.72998 503.536011 595.080017 500.60199 C 593.836975 498.393005 592.297974 496.348999 590.659973 494.415039 C 589.583008 493.143005 587.124023 490.879028 587.124023 490.879028 L 586.682007 488.669006 C 586.682007 488.669006 586.486023 486.296021 586.23999 485.132996 C 585.60498 482.122986 583.588989 476.294006 583.588989 476.294006 L 581.820984 470.547974 L 577.843018 461.266968 L 578.284973 459.94104 L 575.190979 453.754028 L 575.190979 450.660034 L 573.422974 448.450012 L 573.422974 445.797974 L 574.749023 444.914001 L 574.749023 440.052979 L 575.190979 437.401001 L 588.892029 410.44104 C 588.892029 410.44104 593.736023 405.880005 595.080017 402.927002 C 595.450989 402.110962 595.521973 400.275024 595.521973 400.275024 C 595.521973 400.275024 597.01001 399.837036 597.289978 399.390991 C 597.822998 398.541992 597.731995 396.297974 597.731995 396.297974 L 603.034973 387.900024 C 603.034973 387.900024 606.380005 386.953003 607.896973 386.131958 C 608.544983 385.781982 609.664978 384.80603 609.664978 384.80603 L 608.338989 375.967041 C 608.338989 375.967041 611.328003 367.437012 612.757996 363.150024 C 613.541016 360.803955 617.177979 356.962036 617.177979 356.962036 L 633.088989 341.051025 L 634.856995 339.283997 L 635.299011 337.515991 C 635.299011 337.515991 636.372986 337.333008 636.625 337.073975 C 636.844971 336.846985 637.508972 334.864014 637.508972 334.864014 L 640.603027 331.328003 L 640.603027 330.44397 L 642.369995 327.791992 L 647.674011 322.93103 L 649 319.837036 L 647.674011 318.510986 L 645.906006 316.743042 L 645.021973 313.207031 L 640.161011 312.765015 L 639.718994 313.648987 L 641.044983 314.974976 L 639.718994 315.416992 L 638.393005 314.974976 L 636.625 318.510986 L 636.182983 326.025024 L 635.299011 326.025024 C 635.299011 326.025024 631.919006 329.390991 631.763 329.559998 C 631.614014 329.721008 630.90802 329.323975 630.879028 329.559998 C 630.823975 330.015015 630.437012 330.885986 630.437012 330.885986 L 627.786011 333.537964 L 627.343994 334.421997 L 627.343994 335.30603 L 612.317017 348.122986 L 602.151001 359.614014 L 599.499023 363.592041 C 599.499023 363.592041 595.271973 371.427979 595.080017 371.546997 C 594.888 371.666992 591.10199 373.756958 591.10199 373.756958 L 592.869995 368.011963 L 594.195984 359.171997 C 594.195984 359.171997 593.968994 356.103027 593.312012 354.752991 C 592.71698 353.531006 590.659973 351.658997 590.659973 351.658997 C 590.659973 351.658997 588.226013 348.957031 588.007996 348.565002 C 587.791016 348.172974 586.940002 347.426025 585.356018 346.796997 C 584.804993 346.578003 580.052979 345.912964 580.052979 345.912964 C 580.052979 345.912964 575.934021 345.223022 573.86499 345.471008 C 572.60498 345.622009 570.531982 346.380005 569.754028 346.677002 C 569.559021 346.752014 569.518982 346.713989 569.445007 346.796997 C 568.765015 347.56604 567.677979 349.006958 567.677979 349.006958 C 567.677979 349.006958 566.781006 350.018005 566.794006 350.333008 C 566.807007 350.64801 565.26001 352.261963 565.026001 353.427002 C 564.901001 354.044006 565.909973 359.614014 565.909973 359.614014 C 565.909973 359.614014 565.424011 361.963013 565.468018 363.150024 C 565.494995 363.901001 565.955994 364.609985 565.909973 365.359985 C 565.880981 365.825012 565.504028 366.221008 565.468018 366.686035 C 565.39801 367.578979 565.909973 369.337036 565.909973 369.337036 L 566.794006 372.43103 L 567.236023 373.756958 L 567.677979 374.640991 L 564.142029 378.619019 C 564.142029 378.619019 560.789001 377.676025 560.164001 377.734985 C 559.63501 377.785034 559.280029 379.061035 559.280029 379.061035 L 543.369019 365.802002 L 540.718018 363.592041 L 536.297974 357.403992 C 536.297974 357.403992 534.229004 354.023987 532.320007 352.542969 C 531.434021 351.85498 528.783997 350.333008 528.783997 350.333008 L 526.575012 346.796997 L 523.481018 342.377014 L 511.105988 331.77002 L 511.105988 331.328003 L 502.265991 321.60498 L 501.381989 321.60498 L 501.824005 319.837036 L 504.476013 317.184998 L 504.917999 314.974976 L 504.476013 310.997986 L 503.59201 308.787964 L 505.802002 304.809998 L 505.802002 302.599976 L 506.243988 300.832031 C 506.243988 300.832031 508.414001 297.987 509.779999 296.85498 C 512.424988 294.661011 515.51001 293.014038 518.619019 291.551025 C 521.021973 290.420044 522.559998 290.315002 524.807007 288.898987 C 527.450989 287.233032 529.302002 285.781006 530.994019 283.153992 C 532.356995 281.036987 533.747986 278.134033 534.088013 275.640015 C 534.677979 271.312988 535.114014 268.877014 534.530029 263.707031 C 534.406006 262.610962 534.255981 261.710999 533.969971 260.796997 C 533.502014 259.307007 532.671021 257.780029 530.994019 255.309021 C 528.25 251.264038 525.093018 249.714966 523.481018 249.122009 C 521.799011 248.502991 519.968018 248.313965 518.177002 248.238037 C 514.012024 248.059998 510.779999 250.999023 509.338013 252.216003 C 505.785004 255.210999 503.592987 260.653015 503.149994 265.474976 C 502.746002 269.872986 503.390991 275.938965 503.59201 277.849976 C 503.825012 280.067017 503.885986 281.370972 504.033997 283.594971 C 504.122009 284.917969 504.104004 285.807007 504.033997 287.130981 C 503.946014 288.817993 504.089996 289.615967 504.033997 291.551025 C 503.997009 292.841003 503.829987 296.196045 503.59201 297.296997 C 503.394989 298.207031 502.708008 299.505981 502.708008 299.505981 L 501.824005 301.273987 L 500.497986 302.599976 L 498.287994 307.903992 C 498.287994 307.903992 495.656006 307.954956 495.195007 308.346008 C 494.621002 308.830994 494.752991 310.55603 494.752991 310.55603 C 494.752991 310.55603 493.479004 311.002991 492.984985 311.440002 C 492.587006 311.791016 492.101013 312.765015 492.101013 312.765015 C 492.101013 312.765015 491.371002 313.583008 491.21701 314.091003 C 491.003998 314.796021 491.21701 316.301025 491.21701 316.301025 C 491.21701 316.301025 491.007996 319.671997 491.658997 321.162964 C 492.451996 322.979004 495.636993 325.583008 495.636993 325.583008 L 496.07901 326.907959 L 504.476013 338.400024 L 504.917999 338.400024 L 513.757019 347.239014 L 518.619019 351.658997 L 520.387024 355.19397 L 522.596985 357.846008 L 524.36499 361.823975 L 530.109985 370.221008 L 534.530029 378.619019 C 534.530029 378.619019 533.419006 381.421021 533.203979 382.155029 C 533.020996 382.778992 533.106018 384.757996 533.203979 385.247986 C 533.296997 385.716003 535.856018 387.458008 535.856018 387.458008 C 535.856018 387.458008 534.625977 398.021973 534.971985 399.390991 C 535.122009 399.984985 538.950012 402.042969 538.950012 402.042969 L 530.994019 425.468018 L 530.994019 429.002991 L 528.34198 429.886963 L 526.132996 430.770996 C 526.132996 430.770996 524.564026 432.160034 523.922974 432.980957 C 523.393982 433.657959 522.72699 434.761963 522.596985 435.19104 C 522.484009 435.562012 524.36499 437.401001 524.36499 437.401001 L 523.039001 439.169006 L 519.502991 440.494995 L 518.177002 441.820007 C 518.177002 441.820007 516.687988 443.197021 515.083008 444.471985 C 513.478027 445.747986 510.589996 448.520996 508.45401 450.660034 C 504.32901 454.790039 500.140015 458.896973 496.520996 463.47699 C 495.203003 465.144043 492.984985 468.781006 492.984985 468.781006 L 490.774994 471.432007 L 486.796997 474.526001 L 485.471008 474.968018 L 483.703003 478.504028 C 483.703003 478.504028 483.916992 483.890015 483.261993 486.458984 C 482.804993 488.247986 481.052002 491.321045 481.052002 491.321045 L 479.283997 497.950989 L 478.84201 510.768005 L 478.399994 516.070984 L 477.074005 518.723022 L 477.515991 520.491028 L 475.306 523.585022 L 474.864014 525.794983 L 473.980011 528.005005 L 470.444 531.098022 Z"/>
    <linearGradient id="linearGradient2" x1="304.081355" y1="856.980204" x2="304.081355" y2="94.860549" gradientUnits="userSpaceOnUse">
        <stop offset="1e-05" stop-color="#247591" stop-opacity="1"/>
        <stop offset="1" stop-color="#2cafde" stop-opacity="1"/>
    </linearGradient>
    <path id="N-copy" fill="url(#linearGradient2)" stroke="none" d="M 565.911987 223.283997 L 358.294006 222.082031 L 344.011993 329.578979 C 344.011993 329.578979 112.289001 97.281006 112 97 C 107.492996 92.620972 106 98 106 98 C 106 98 37.026001 750.575989 37.026001 750.575989 L 203.647995 750.653992 C 203.647995 750.653992 218.285995 627.380005 220.593994 627.106018 C 221.212997 627.031982 440.480988 850.281006 440.813995 850.578003 C 458.277008 866.174011 464.56601 850.424011 465.661011 845.166992 C 472.490997 812.382996 472.403992 808.380005 475.503998 787.093018 C 476.364014 781.190979 480.039001 778.437988 480.425995 774.296997 C 486.144012 713.104004 483.04599 698.361023 481.410004 684.726013 C 479.376007 667.771973 472.992004 636.817993 444.006989 572.515991 C 438.721008 560.789001 415.14801 508.291016 410.540985 480.976013 C 403.630005 440.004028 403.507996 387.888 414.477997 353.018005 C 431.153015 300.01001 464.138 230.106995 565.911987 223.283997 Z"/>
    <linearGradient id="linearGradient3" x1="734.321" y1="959.043" x2="734.321" y2="223.351" gradientUnits="userSpaceOnUse">
        <stop offset="1e-05" stop-color="#247591" stop-opacity="1"/>
        <stop offset="1" stop-color="#2cafde" stop-opacity="1"/>
    </linearGradient>
    <path id="C-copy" fill="url(#linearGradient3)" stroke="none" d="M 969.86499 226.507996 C 969.934998 225.789978 585.249023 222.789978 588.698975 224.075012 C 657.429016 249.661011 664.960022 277.644043 680.237976 308.723999 C 703.085999 355.202026 693.211975 437.363037 663.505005 498.69397 C 651.695984 523.075012 639.848022 542.919983 616.258972 575.468994 C 603.690002 592.812012 555.263 651.833984 542.437012 680.789001 C 534.369019 699.002991 520.10498 733.166992 514.875977 778.234985 C 514.601013 780.609009 517.120972 786.651978 516.844971 789.062012 C 513.27002 820.228027 492.242004 959.351013 494.205994 959.344971 C 517.72998 959.276001 905.784973 958.096008 905.784973 958.096008 C 905.784973 958.096008 942.95697 797.762024 942.95697 797.762024 C 942.95697 797.762024 683.906006 795.237 683.906006 795.237 C 683.906006 795.237 764.361023 399.266968 764.361023 399.266968 C 764.361023 399.266968 927.817993 400.537964 927.817993 400.537964 C 927.817993 400.537964 969.502991 230.240967 969.86499 226.507996 Z"/>
</svg>
